<svg xmlns="http://www.w3.org/2000/svg" viewBox="0 0 180 80">
  <defs>
    <linearGradient id="arrowGradSimple" x1="0%" y1="0%" x2="100%" y2="0%">
      <stop offset="0%" style="stop-color:#dc2626"/>
      <stop offset="100%" style="stop-color:#b91c1c"/>
    </linearGradient>
  </defs>
  
  <!-- F -->
  <path d="M10 8 L10 72 L28 72 L28 48 L55 48 L55 32 L28 32 L28 24 L60 24 L60 8 Z" fill="currentColor"/>
  
  <!-- First L -->
  <path d="M65 8 L65 72 L110 72 L110 56 L83 56 L83 8 Z" fill="currentColor"/>
  
  <!-- Second L -->
  <path d="M115 8 L115 72 L160 72 L160 56 L133 56 L133 8 Z" fill="currentColor"/>
  
  <!-- Curved Arrow (Red, curving from bottom-left upward to top-right) -->
  <path d="M5 58
           Q15 70, 40 68
           Q70 65, 100 55
           Q130 45, 155 30
           L150 38 L168 22 L148 18 L153 27
           Q125 42, 95 52
           Q65 62, 35 63
           Q15 64, 8 52
           Z" 
        fill="url(#arrowGradSimple)"/>
</svg>
