<svg xmlns="http://www.w3.org/2000/svg" viewBox="0 0 400 200">
  <defs>
    <linearGradient id="arrowGrad" x1="0%" y1="0%" x2="100%" y2="0%">
      <stop offset="0%" style="stop-color:#dc2626"/>
      <stop offset="100%" style="stop-color:#991b1b"/>
    </linearGradient>
  </defs>
  
  <!-- F -->
  <path d="M30 30 L30 170 L60 170 L60 110 L100 110 L100 80 L60 80 L60 60 L110 60 L110 30 Z" fill="#ffffff"/>
  
  <!-- L -->
  <path d="M120 30 L120 170 L200 170 L200 140 L150 140 L150 30 Z" fill="#ffffff"/>
  
  <!-- L -->
  <path d="M210 30 L210 170 L290 170 L290 140 L240 140 L240 30 Z" fill="#ffffff"/>
  
  <!-- Arrow -->
  <path d="M80 130 Q120 80, 200 60 Q250 50, 300 40 L310 55 L330 25 L295 30 L305 45 Q250 55, 200 70 Q130 90, 95 135 Z" fill="url(#arrowGrad)"/>
  
</svg>

